<mxfile host="app.diagrams.net" agent="Mozilla/5.0 (Windows NT 10.0; Win64; x64) AppleWebKit/537.36 (KHTML, like Gecko) Chrome/132.0.0.0 Safari/537.36" version="26.0.10">
  <diagram id="C5RBs43oDa-KdzZeNtuy" name="Page-1">
    <mxGraphModel dx="712" dy="771" grid="1" gridSize="10" guides="1" tooltips="1" connect="1" arrows="1" fold="1" page="1" pageScale="1" pageWidth="827" pageHeight="1169" math="0" shadow="0">
      <root>
        <mxCell id="WIyWlLk6GJQsqaUBKTNV-0" />
        <mxCell id="WIyWlLk6GJQsqaUBKTNV-1" parent="WIyWlLk6GJQsqaUBKTNV-0" />
        <mxCell id="t0O0TP2Upv_KhOTyi0DR-10" value="" style="edgeStyle=orthogonalEdgeStyle;rounded=0;orthogonalLoop=1;jettySize=auto;html=1;" edge="1" parent="WIyWlLk6GJQsqaUBKTNV-1" source="WIyWlLk6GJQsqaUBKTNV-3" target="t0O0TP2Upv_KhOTyi0DR-9">
          <mxGeometry relative="1" as="geometry" />
        </mxCell>
        <mxCell id="t0O0TP2Upv_KhOTyi0DR-21" value="" style="edgeStyle=orthogonalEdgeStyle;rounded=0;orthogonalLoop=1;jettySize=auto;html=1;" edge="1" parent="WIyWlLk6GJQsqaUBKTNV-1" source="WIyWlLk6GJQsqaUBKTNV-3" target="t0O0TP2Upv_KhOTyi0DR-20">
          <mxGeometry relative="1" as="geometry" />
        </mxCell>
        <mxCell id="WIyWlLk6GJQsqaUBKTNV-3" value="Create server.js file" style="rounded=1;whiteSpace=wrap;html=1;fontSize=12;glass=0;strokeWidth=1;shadow=0;" parent="WIyWlLk6GJQsqaUBKTNV-1" vertex="1">
          <mxGeometry x="160" y="160" width="120" height="40" as="geometry" />
        </mxCell>
        <mxCell id="t0O0TP2Upv_KhOTyi0DR-4" value="" style="edgeStyle=orthogonalEdgeStyle;rounded=0;orthogonalLoop=1;jettySize=auto;html=1;" edge="1" parent="WIyWlLk6GJQsqaUBKTNV-1" source="WIyWlLk6GJQsqaUBKTNV-7" target="t0O0TP2Upv_KhOTyi0DR-3">
          <mxGeometry relative="1" as="geometry" />
        </mxCell>
        <mxCell id="t0O0TP2Upv_KhOTyi0DR-7" style="edgeStyle=orthogonalEdgeStyle;rounded=0;orthogonalLoop=1;jettySize=auto;html=1;entryX=0.5;entryY=0;entryDx=0;entryDy=0;" edge="1" parent="WIyWlLk6GJQsqaUBKTNV-1" source="WIyWlLk6GJQsqaUBKTNV-7" target="WIyWlLk6GJQsqaUBKTNV-3">
          <mxGeometry relative="1" as="geometry" />
        </mxCell>
        <mxCell id="WIyWlLk6GJQsqaUBKTNV-7" value="Open terminal, cd to backend folder" style="rounded=1;whiteSpace=wrap;html=1;fontSize=12;glass=0;strokeWidth=1;shadow=0;" parent="WIyWlLk6GJQsqaUBKTNV-1" vertex="1">
          <mxGeometry x="160" y="80" width="120" height="40" as="geometry" />
        </mxCell>
        <mxCell id="t0O0TP2Upv_KhOTyi0DR-67" style="edgeStyle=orthogonalEdgeStyle;rounded=0;orthogonalLoop=1;jettySize=auto;html=1;entryX=0.5;entryY=0;entryDx=0;entryDy=0;" edge="1" parent="WIyWlLk6GJQsqaUBKTNV-1" source="t0O0TP2Upv_KhOTyi0DR-0" target="WIyWlLk6GJQsqaUBKTNV-7">
          <mxGeometry relative="1" as="geometry" />
        </mxCell>
        <mxCell id="t0O0TP2Upv_KhOTyi0DR-0" value="Backend" style="rounded=1;whiteSpace=wrap;html=1;fontSize=12;glass=0;strokeWidth=1;shadow=0;" vertex="1" parent="WIyWlLk6GJQsqaUBKTNV-1">
          <mxGeometry x="160" width="120" height="40" as="geometry" />
        </mxCell>
        <mxCell id="t0O0TP2Upv_KhOTyi0DR-6" value="" style="edgeStyle=orthogonalEdgeStyle;rounded=0;orthogonalLoop=1;jettySize=auto;html=1;" edge="1" parent="WIyWlLk6GJQsqaUBKTNV-1" source="t0O0TP2Upv_KhOTyi0DR-3" target="t0O0TP2Upv_KhOTyi0DR-5">
          <mxGeometry relative="1" as="geometry" />
        </mxCell>
        <mxCell id="t0O0TP2Upv_KhOTyi0DR-3" value="command:&lt;div&gt;npm init -y&lt;/div&gt;" style="rounded=1;whiteSpace=wrap;html=1;fontSize=12;glass=0;strokeWidth=1;shadow=0;" vertex="1" parent="WIyWlLk6GJQsqaUBKTNV-1">
          <mxGeometry x="320" y="80" width="120" height="40" as="geometry" />
        </mxCell>
        <mxCell id="t0O0TP2Upv_KhOTyi0DR-5" value="command:&lt;div&gt;npm install express&lt;/div&gt;" style="rounded=1;whiteSpace=wrap;html=1;fontSize=12;glass=0;strokeWidth=1;shadow=0;" vertex="1" parent="WIyWlLk6GJQsqaUBKTNV-1">
          <mxGeometry x="480" y="80" width="120" height="40" as="geometry" />
        </mxCell>
        <mxCell id="t0O0TP2Upv_KhOTyi0DR-13" value="" style="edgeStyle=orthogonalEdgeStyle;rounded=0;orthogonalLoop=1;jettySize=auto;html=1;" edge="1" parent="WIyWlLk6GJQsqaUBKTNV-1" source="t0O0TP2Upv_KhOTyi0DR-9" target="t0O0TP2Upv_KhOTyi0DR-12">
          <mxGeometry relative="1" as="geometry" />
        </mxCell>
        <mxCell id="t0O0TP2Upv_KhOTyi0DR-14" value="" style="edgeStyle=orthogonalEdgeStyle;rounded=0;orthogonalLoop=1;jettySize=auto;html=1;" edge="1" parent="WIyWlLk6GJQsqaUBKTNV-1" source="t0O0TP2Upv_KhOTyi0DR-9" target="t0O0TP2Upv_KhOTyi0DR-12">
          <mxGeometry relative="1" as="geometry" />
        </mxCell>
        <mxCell id="t0O0TP2Upv_KhOTyi0DR-9" value="code:&lt;div&gt;const express = require(&#39;express&#39;)&lt;/div&gt;&lt;div&gt;const project_name = express()&lt;/div&gt;" style="rounded=1;whiteSpace=wrap;html=1;fontSize=12;glass=0;strokeWidth=1;shadow=0;" vertex="1" parent="WIyWlLk6GJQsqaUBKTNV-1">
          <mxGeometry x="320" y="150" width="240" height="60" as="geometry" />
        </mxCell>
        <mxCell id="t0O0TP2Upv_KhOTyi0DR-23" value="" style="edgeStyle=orthogonalEdgeStyle;rounded=0;orthogonalLoop=1;jettySize=auto;html=1;" edge="1" parent="WIyWlLk6GJQsqaUBKTNV-1" source="t0O0TP2Upv_KhOTyi0DR-12" target="t0O0TP2Upv_KhOTyi0DR-22">
          <mxGeometry relative="1" as="geometry" />
        </mxCell>
        <mxCell id="t0O0TP2Upv_KhOTyi0DR-12" value="commands to run:&lt;div&gt;(single run)&lt;/div&gt;&lt;div&gt;node serjer.js&lt;/div&gt;&lt;div&gt;&lt;br&gt;&lt;/div&gt;&lt;div&gt;(auto rerun)&lt;/div&gt;&lt;div&gt;nodemon server.js&lt;/div&gt;&lt;div&gt;&lt;br&gt;&lt;/div&gt;&lt;div&gt;(script in package.json)&lt;/div&gt;&lt;div&gt;npm run dev&lt;/div&gt;" style="rounded=1;whiteSpace=wrap;html=1;fontSize=12;glass=0;strokeWidth=1;shadow=0;" vertex="1" parent="WIyWlLk6GJQsqaUBKTNV-1">
          <mxGeometry x="640" y="95" width="120" height="170" as="geometry" />
        </mxCell>
        <mxCell id="t0O0TP2Upv_KhOTyi0DR-25" value="" style="edgeStyle=orthogonalEdgeStyle;rounded=0;orthogonalLoop=1;jettySize=auto;html=1;" edge="1" parent="WIyWlLk6GJQsqaUBKTNV-1" source="t0O0TP2Upv_KhOTyi0DR-20" target="t0O0TP2Upv_KhOTyi0DR-24">
          <mxGeometry relative="1" as="geometry" />
        </mxCell>
        <mxCell id="t0O0TP2Upv_KhOTyi0DR-35" value="" style="edgeStyle=orthogonalEdgeStyle;rounded=0;orthogonalLoop=1;jettySize=auto;html=1;" edge="1" parent="WIyWlLk6GJQsqaUBKTNV-1" source="t0O0TP2Upv_KhOTyi0DR-20" target="t0O0TP2Upv_KhOTyi0DR-34">
          <mxGeometry relative="1" as="geometry" />
        </mxCell>
        <mxCell id="t0O0TP2Upv_KhOTyi0DR-20" value="Create routes folder" style="rounded=1;whiteSpace=wrap;html=1;fontSize=12;glass=0;strokeWidth=1;shadow=0;" vertex="1" parent="WIyWlLk6GJQsqaUBKTNV-1">
          <mxGeometry x="160" y="320" width="120" height="40" as="geometry" />
        </mxCell>
        <mxCell id="t0O0TP2Upv_KhOTyi0DR-22" value="Coding to connect Route folder&amp;nbsp;" style="rounded=1;whiteSpace=wrap;html=1;fontSize=12;glass=0;strokeWidth=1;shadow=0;" vertex="1" parent="WIyWlLk6GJQsqaUBKTNV-1">
          <mxGeometry x="800" y="160" width="120" height="40" as="geometry" />
        </mxCell>
        <mxCell id="t0O0TP2Upv_KhOTyi0DR-28" value="" style="edgeStyle=orthogonalEdgeStyle;rounded=0;orthogonalLoop=1;jettySize=auto;html=1;" edge="1" parent="WIyWlLk6GJQsqaUBKTNV-1" source="t0O0TP2Upv_KhOTyi0DR-24" target="t0O0TP2Upv_KhOTyi0DR-27">
          <mxGeometry relative="1" as="geometry" />
        </mxCell>
        <mxCell id="t0O0TP2Upv_KhOTyi0DR-24" value="create post.js file" style="rounded=1;whiteSpace=wrap;html=1;fontSize=12;glass=0;strokeWidth=1;shadow=0;" vertex="1" parent="WIyWlLk6GJQsqaUBKTNV-1">
          <mxGeometry x="320" y="320" width="120" height="40" as="geometry" />
        </mxCell>
        <mxCell id="t0O0TP2Upv_KhOTyi0DR-30" value="" style="edgeStyle=orthogonalEdgeStyle;rounded=0;orthogonalLoop=1;jettySize=auto;html=1;" edge="1" parent="WIyWlLk6GJQsqaUBKTNV-1" source="t0O0TP2Upv_KhOTyi0DR-27" target="t0O0TP2Upv_KhOTyi0DR-29">
          <mxGeometry relative="1" as="geometry" />
        </mxCell>
        <mxCell id="t0O0TP2Upv_KhOTyi0DR-27" value="create router for all api request&lt;div&gt;- get (all / id)&lt;/div&gt;&lt;div&gt;-post&lt;/div&gt;&lt;div&gt;-delete (id)&lt;/div&gt;&lt;div&gt;-patch (id)&lt;/div&gt;" style="rounded=1;whiteSpace=wrap;html=1;fontSize=12;glass=0;strokeWidth=1;shadow=0;" vertex="1" parent="WIyWlLk6GJQsqaUBKTNV-1">
          <mxGeometry x="480" y="285" width="120" height="110" as="geometry" />
        </mxCell>
        <mxCell id="t0O0TP2Upv_KhOTyi0DR-33" value="" style="edgeStyle=orthogonalEdgeStyle;rounded=0;orthogonalLoop=1;jettySize=auto;html=1;" edge="1" parent="WIyWlLk6GJQsqaUBKTNV-1" source="t0O0TP2Upv_KhOTyi0DR-29" target="t0O0TP2Upv_KhOTyi0DR-32">
          <mxGeometry relative="1" as="geometry" />
        </mxCell>
        <mxCell id="t0O0TP2Upv_KhOTyi0DR-29" value="Export router to be used on other files" style="rounded=1;whiteSpace=wrap;html=1;fontSize=12;glass=0;strokeWidth=1;shadow=0;" vertex="1" parent="WIyWlLk6GJQsqaUBKTNV-1">
          <mxGeometry x="640" y="320" width="120" height="40" as="geometry" />
        </mxCell>
        <mxCell id="t0O0TP2Upv_KhOTyi0DR-32" value="Test router on Postman" style="rounded=1;whiteSpace=wrap;html=1;fontSize=12;glass=0;strokeWidth=1;shadow=0;" vertex="1" parent="WIyWlLk6GJQsqaUBKTNV-1">
          <mxGeometry x="800" y="320" width="120" height="40" as="geometry" />
        </mxCell>
        <mxCell id="t0O0TP2Upv_KhOTyi0DR-37" value="" style="edgeStyle=orthogonalEdgeStyle;rounded=0;orthogonalLoop=1;jettySize=auto;html=1;" edge="1" parent="WIyWlLk6GJQsqaUBKTNV-1" source="t0O0TP2Upv_KhOTyi0DR-34" target="t0O0TP2Upv_KhOTyi0DR-36">
          <mxGeometry relative="1" as="geometry" />
        </mxCell>
        <mxCell id="t0O0TP2Upv_KhOTyi0DR-55" value="" style="edgeStyle=orthogonalEdgeStyle;rounded=0;orthogonalLoop=1;jettySize=auto;html=1;" edge="1" parent="WIyWlLk6GJQsqaUBKTNV-1" source="t0O0TP2Upv_KhOTyi0DR-34" target="t0O0TP2Upv_KhOTyi0DR-54">
          <mxGeometry relative="1" as="geometry" />
        </mxCell>
        <mxCell id="t0O0TP2Upv_KhOTyi0DR-34" value="Connect to mongodb&lt;div&gt;(mongo atlas)&lt;/div&gt;" style="rounded=1;whiteSpace=wrap;html=1;fontSize=12;glass=0;strokeWidth=1;shadow=0;" vertex="1" parent="WIyWlLk6GJQsqaUBKTNV-1">
          <mxGeometry x="160" y="440" width="120" height="40" as="geometry" />
        </mxCell>
        <mxCell id="t0O0TP2Upv_KhOTyi0DR-40" value="" style="edgeStyle=orthogonalEdgeStyle;rounded=0;orthogonalLoop=1;jettySize=auto;html=1;" edge="1" parent="WIyWlLk6GJQsqaUBKTNV-1" source="t0O0TP2Upv_KhOTyi0DR-36" target="t0O0TP2Upv_KhOTyi0DR-39">
          <mxGeometry relative="1" as="geometry" />
        </mxCell>
        <mxCell id="t0O0TP2Upv_KhOTyi0DR-36" value="Create a database in mongo atlas" style="rounded=1;whiteSpace=wrap;html=1;fontSize=12;glass=0;strokeWidth=1;shadow=0;" vertex="1" parent="WIyWlLk6GJQsqaUBKTNV-1">
          <mxGeometry x="320" y="440" width="120" height="40" as="geometry" />
        </mxCell>
        <mxCell id="t0O0TP2Upv_KhOTyi0DR-43" value="" style="edgeStyle=orthogonalEdgeStyle;rounded=0;orthogonalLoop=1;jettySize=auto;html=1;" edge="1" parent="WIyWlLk6GJQsqaUBKTNV-1" source="t0O0TP2Upv_KhOTyi0DR-39" target="t0O0TP2Upv_KhOTyi0DR-42">
          <mxGeometry relative="1" as="geometry" />
        </mxCell>
        <mxCell id="t0O0TP2Upv_KhOTyi0DR-39" value="Connect via Connection String in .env file" style="rounded=1;whiteSpace=wrap;html=1;fontSize=12;glass=0;strokeWidth=1;shadow=0;" vertex="1" parent="WIyWlLk6GJQsqaUBKTNV-1">
          <mxGeometry x="480" y="435" width="120" height="50" as="geometry" />
        </mxCell>
        <mxCell id="t0O0TP2Upv_KhOTyi0DR-45" value="" style="edgeStyle=orthogonalEdgeStyle;rounded=0;orthogonalLoop=1;jettySize=auto;html=1;" edge="1" parent="WIyWlLk6GJQsqaUBKTNV-1" source="t0O0TP2Upv_KhOTyi0DR-42" target="t0O0TP2Upv_KhOTyi0DR-44">
          <mxGeometry relative="1" as="geometry" />
        </mxCell>
        <mxCell id="t0O0TP2Upv_KhOTyi0DR-42" value="Connect db using object with the Connection String in .env file" style="rounded=1;whiteSpace=wrap;html=1;fontSize=12;glass=0;strokeWidth=1;shadow=0;" vertex="1" parent="WIyWlLk6GJQsqaUBKTNV-1">
          <mxGeometry x="640" y="427.5" width="120" height="65" as="geometry" />
        </mxCell>
        <mxCell id="t0O0TP2Upv_KhOTyi0DR-48" value="" style="edgeStyle=orthogonalEdgeStyle;rounded=0;orthogonalLoop=1;jettySize=auto;html=1;" edge="1" parent="WIyWlLk6GJQsqaUBKTNV-1" source="t0O0TP2Upv_KhOTyi0DR-44" target="t0O0TP2Upv_KhOTyi0DR-47">
          <mxGeometry relative="1" as="geometry" />
        </mxCell>
        <mxCell id="t0O0TP2Upv_KhOTyi0DR-44" value="Create a Models folder with postModel file&lt;div&gt;(create post schema, all variable in the schema)&lt;/div&gt;" style="rounded=1;whiteSpace=wrap;html=1;fontSize=12;glass=0;strokeWidth=1;shadow=0;" vertex="1" parent="WIyWlLk6GJQsqaUBKTNV-1">
          <mxGeometry x="800" y="403.75" width="120" height="112.5" as="geometry" />
        </mxCell>
        <mxCell id="t0O0TP2Upv_KhOTyi0DR-47" value="Export model to be used by other files" style="rounded=1;whiteSpace=wrap;html=1;fontSize=12;glass=0;strokeWidth=1;shadow=0;" vertex="1" parent="WIyWlLk6GJQsqaUBKTNV-1">
          <mxGeometry x="960" y="440" width="120" height="40" as="geometry" />
        </mxCell>
        <mxCell id="t0O0TP2Upv_KhOTyi0DR-65" value="" style="edgeStyle=orthogonalEdgeStyle;rounded=0;orthogonalLoop=1;jettySize=auto;html=1;" edge="1" parent="WIyWlLk6GJQsqaUBKTNV-1" source="t0O0TP2Upv_KhOTyi0DR-54" target="t0O0TP2Upv_KhOTyi0DR-64">
          <mxGeometry relative="1" as="geometry" />
        </mxCell>
        <mxCell id="t0O0TP2Upv_KhOTyi0DR-54" value="Create controllers folder" style="rounded=1;whiteSpace=wrap;html=1;fontSize=12;glass=0;strokeWidth=1;shadow=0;" vertex="1" parent="WIyWlLk6GJQsqaUBKTNV-1">
          <mxGeometry x="160" y="564.5" width="120" height="40" as="geometry" />
        </mxCell>
        <mxCell id="t0O0TP2Upv_KhOTyi0DR-59" value="" style="edgeStyle=orthogonalEdgeStyle;rounded=0;orthogonalLoop=1;jettySize=auto;html=1;" edge="1" parent="WIyWlLk6GJQsqaUBKTNV-1" source="t0O0TP2Upv_KhOTyi0DR-56" target="t0O0TP2Upv_KhOTyi0DR-58">
          <mxGeometry relative="1" as="geometry" />
        </mxCell>
        <mxCell id="t0O0TP2Upv_KhOTyi0DR-56" value="Functions for all API operation,&lt;div&gt;Routers will only call the exported function&lt;/div&gt;" style="rounded=1;whiteSpace=wrap;html=1;fontSize=12;glass=0;strokeWidth=1;shadow=0;" vertex="1" parent="WIyWlLk6GJQsqaUBKTNV-1">
          <mxGeometry x="480" y="542.25" width="120" height="85.5" as="geometry" />
        </mxCell>
        <mxCell id="t0O0TP2Upv_KhOTyi0DR-61" style="edgeStyle=orthogonalEdgeStyle;rounded=0;orthogonalLoop=1;jettySize=auto;html=1;entryX=0;entryY=0.5;entryDx=0;entryDy=0;" edge="1" parent="WIyWlLk6GJQsqaUBKTNV-1" source="t0O0TP2Upv_KhOTyi0DR-58" target="t0O0TP2Upv_KhOTyi0DR-60">
          <mxGeometry relative="1" as="geometry" />
        </mxCell>
        <mxCell id="t0O0TP2Upv_KhOTyi0DR-58" value="May interact with or without Database" style="rounded=1;whiteSpace=wrap;html=1;fontSize=12;glass=0;strokeWidth=1;shadow=0;" vertex="1" parent="WIyWlLk6GJQsqaUBKTNV-1">
          <mxGeometry x="640" y="565" width="120" height="40" as="geometry" />
        </mxCell>
        <mxCell id="t0O0TP2Upv_KhOTyi0DR-60" value="Export functions to be used by other files" style="rounded=1;whiteSpace=wrap;html=1;fontSize=12;glass=0;strokeWidth=1;shadow=0;" vertex="1" parent="WIyWlLk6GJQsqaUBKTNV-1">
          <mxGeometry x="800" y="564.5" width="120" height="40" as="geometry" />
        </mxCell>
        <mxCell id="t0O0TP2Upv_KhOTyi0DR-66" style="edgeStyle=orthogonalEdgeStyle;rounded=0;orthogonalLoop=1;jettySize=auto;html=1;entryX=0;entryY=0.5;entryDx=0;entryDy=0;" edge="1" parent="WIyWlLk6GJQsqaUBKTNV-1" source="t0O0TP2Upv_KhOTyi0DR-64" target="t0O0TP2Upv_KhOTyi0DR-56">
          <mxGeometry relative="1" as="geometry" />
        </mxCell>
        <mxCell id="t0O0TP2Upv_KhOTyi0DR-64" value="Import Post Model to use variable" style="rounded=1;whiteSpace=wrap;html=1;fontSize=12;glass=0;strokeWidth=1;shadow=0;" vertex="1" parent="WIyWlLk6GJQsqaUBKTNV-1">
          <mxGeometry x="320" y="565" width="120" height="40" as="geometry" />
        </mxCell>
        <mxCell id="t0O0TP2Upv_KhOTyi0DR-70" style="edgeStyle=orthogonalEdgeStyle;rounded=0;orthogonalLoop=1;jettySize=auto;html=1;entryX=0.5;entryY=0;entryDx=0;entryDy=0;" edge="1" parent="WIyWlLk6GJQsqaUBKTNV-1" source="t0O0TP2Upv_KhOTyi0DR-68" target="t0O0TP2Upv_KhOTyi0DR-69">
          <mxGeometry relative="1" as="geometry" />
        </mxCell>
        <mxCell id="t0O0TP2Upv_KhOTyi0DR-68" value="Frontend" style="rounded=1;whiteSpace=wrap;html=1;fontSize=12;glass=0;strokeWidth=1;shadow=0;" vertex="1" parent="WIyWlLk6GJQsqaUBKTNV-1">
          <mxGeometry x="160" y="680" width="120" height="40" as="geometry" />
        </mxCell>
        <mxCell id="t0O0TP2Upv_KhOTyi0DR-72" value="" style="edgeStyle=orthogonalEdgeStyle;rounded=0;orthogonalLoop=1;jettySize=auto;html=1;" edge="1" parent="WIyWlLk6GJQsqaUBKTNV-1" source="t0O0TP2Upv_KhOTyi0DR-69" target="t0O0TP2Upv_KhOTyi0DR-71">
          <mxGeometry relative="1" as="geometry" />
        </mxCell>
        <mxCell id="t0O0TP2Upv_KhOTyi0DR-77" value="" style="edgeStyle=orthogonalEdgeStyle;rounded=0;orthogonalLoop=1;jettySize=auto;html=1;" edge="1" parent="WIyWlLk6GJQsqaUBKTNV-1" source="t0O0TP2Upv_KhOTyi0DR-69" target="t0O0TP2Upv_KhOTyi0DR-76">
          <mxGeometry relative="1" as="geometry" />
        </mxCell>
        <mxCell id="t0O0TP2Upv_KhOTyi0DR-69" value="Open terminal, cd to frontend folder" style="rounded=1;whiteSpace=wrap;html=1;fontSize=12;glass=0;strokeWidth=1;shadow=0;" vertex="1" parent="WIyWlLk6GJQsqaUBKTNV-1">
          <mxGeometry x="160" y="760" width="120" height="40" as="geometry" />
        </mxCell>
        <mxCell id="t0O0TP2Upv_KhOTyi0DR-75" value="" style="edgeStyle=orthogonalEdgeStyle;rounded=0;orthogonalLoop=1;jettySize=auto;html=1;" edge="1" parent="WIyWlLk6GJQsqaUBKTNV-1" source="t0O0TP2Upv_KhOTyi0DR-71" target="t0O0TP2Upv_KhOTyi0DR-74">
          <mxGeometry relative="1" as="geometry" />
        </mxCell>
        <mxCell id="t0O0TP2Upv_KhOTyi0DR-71" value="Command:&lt;div&gt;npx create-react-app project_name&lt;/div&gt;" style="rounded=1;whiteSpace=wrap;html=1;fontSize=12;glass=0;strokeWidth=1;shadow=0;" vertex="1" parent="WIyWlLk6GJQsqaUBKTNV-1">
          <mxGeometry x="320" y="750" width="220" height="60" as="geometry" />
        </mxCell>
        <mxCell id="t0O0TP2Upv_KhOTyi0DR-74" value="Command:&lt;div&gt;npm install react-router-dom&lt;/div&gt;" style="rounded=1;whiteSpace=wrap;html=1;fontSize=12;glass=0;strokeWidth=1;shadow=0;" vertex="1" parent="WIyWlLk6GJQsqaUBKTNV-1">
          <mxGeometry x="570" y="750" width="170" height="60" as="geometry" />
        </mxCell>
        <mxCell id="t0O0TP2Upv_KhOTyi0DR-79" value="" style="edgeStyle=orthogonalEdgeStyle;rounded=0;orthogonalLoop=1;jettySize=auto;html=1;" edge="1" parent="WIyWlLk6GJQsqaUBKTNV-1" source="t0O0TP2Upv_KhOTyi0DR-76" target="t0O0TP2Upv_KhOTyi0DR-78">
          <mxGeometry relative="1" as="geometry" />
        </mxCell>
        <mxCell id="t0O0TP2Upv_KhOTyi0DR-76" value="in App.js file,&lt;div&gt;import&lt;/div&gt;&lt;div&gt;BrowserRouter (wraps everywhere wan to use routes),&lt;/div&gt;&lt;div&gt;Routes (wraps all individual routes), Route (individual route)&lt;/div&gt;&lt;div&gt;Use in template&lt;/div&gt;" style="rounded=1;whiteSpace=wrap;html=1;fontSize=12;glass=0;strokeWidth=1;shadow=0;" vertex="1" parent="WIyWlLk6GJQsqaUBKTNV-1">
          <mxGeometry x="110" y="839.99" width="220" height="140" as="geometry" />
        </mxCell>
        <mxCell id="t0O0TP2Upv_KhOTyi0DR-82" value="" style="edgeStyle=orthogonalEdgeStyle;rounded=0;orthogonalLoop=1;jettySize=auto;html=1;" edge="1" parent="WIyWlLk6GJQsqaUBKTNV-1" source="t0O0TP2Upv_KhOTyi0DR-78" target="t0O0TP2Upv_KhOTyi0DR-81">
          <mxGeometry relative="1" as="geometry" />
        </mxCell>
        <mxCell id="t0O0TP2Upv_KhOTyi0DR-78" value="Create a template for home page in &#39;pages&#39; folder,&lt;div&gt;Import in app.js&lt;/div&gt;" style="rounded=1;whiteSpace=wrap;html=1;fontSize=12;glass=0;strokeWidth=1;shadow=0;" vertex="1" parent="WIyWlLk6GJQsqaUBKTNV-1">
          <mxGeometry x="400" y="882.81" width="160" height="54.37" as="geometry" />
        </mxCell>
        <mxCell id="t0O0TP2Upv_KhOTyi0DR-84" value="" style="edgeStyle=orthogonalEdgeStyle;rounded=0;orthogonalLoop=1;jettySize=auto;html=1;" edge="1" parent="WIyWlLk6GJQsqaUBKTNV-1" source="t0O0TP2Upv_KhOTyi0DR-81" target="t0O0TP2Upv_KhOTyi0DR-83">
          <mxGeometry relative="1" as="geometry" />
        </mxCell>
        <mxCell id="t0O0TP2Upv_KhOTyi0DR-81" value="Create a navbar template in &#39;components&#39; folder,&lt;div&gt;Import in app.js&lt;/div&gt;" style="rounded=1;whiteSpace=wrap;html=1;fontSize=12;glass=0;strokeWidth=1;shadow=0;" vertex="1" parent="WIyWlLk6GJQsqaUBKTNV-1">
          <mxGeometry x="600" y="882.81" width="160" height="54.37" as="geometry" />
        </mxCell>
        <mxCell id="t0O0TP2Upv_KhOTyi0DR-83" value="Style the app.js page in the index.css" style="rounded=1;whiteSpace=wrap;html=1;fontSize=12;glass=0;strokeWidth=1;shadow=0;" vertex="1" parent="WIyWlLk6GJQsqaUBKTNV-1">
          <mxGeometry x="800" y="882.81" width="160" height="54.37" as="geometry" />
        </mxCell>
      </root>
    </mxGraphModel>
  </diagram>
</mxfile>
